<svg width="512" height="204" viewBox="0 0 512 204" fill="none" xmlns="http://www.w3.org/2000/svg">
<rect width="512" height="203.034" rx="101.517" fill="white"/>
<path d="M103.079 178.219C83.6619 178.219 64.2445 170.864 49.4209 156.108C19.7738 126.595 19.7738 78.7425 49.4209 49.2295C64.1971 34.473 83.6619 27.0712 103.079 27.0712C122.497 27.0712 141.914 34.4259 156.738 49.1824C186.385 78.6954 186.385 126.548 156.738 156.061C141.914 170.817 122.497 178.219 103.079 178.219Z" fill="#59A1C9"/>
<path d="M119.182 73.795H75.2319C71.8221 73.795 69.0752 76.5294 69.0752 79.9239V80.5368C69.0752 80.5839 69.0752 80.6311 69.0752 80.7253V101.564C69.0752 101.611 69.0752 101.611 69.0752 101.658V102.271C69.0752 102.318 69.0752 102.318 69.0752 102.365V123.203V123.816C69.0752 124.57 69.2173 125.278 69.4541 125.938C70.3065 128.295 72.5798 129.945 75.2319 129.945H119.182C122.592 129.945 125.338 127.211 125.338 123.816V123.203C125.338 119.809 122.592 117.074 119.182 117.074H82.0044V108.352H119.182C122.592 108.352 125.338 105.618 125.338 102.224V101.611C125.338 98.2163 122.592 95.4818 119.182 95.4818H82.0044V86.6185H119.182C122.592 86.6185 125.338 83.8841 125.338 80.4896V79.8767C125.291 76.5294 122.544 73.795 119.182 73.795ZM159.911 100.998L147.645 88.7872C147.408 88.5515 147.124 88.4572 146.792 88.4572C146.461 88.4572 146.177 88.5515 145.94 88.7872L145.514 89.2115V114.529L145.94 114.953C146.177 115.189 146.461 115.283 146.792 115.283C147.124 115.283 147.408 115.189 147.645 114.953L159.911 102.742C160.337 102.224 160.337 101.469 159.911 100.998Z" fill="white"/>
<path d="M215.832 130.565C215.455 130.19 215.22 129.721 215.22 129.158V77.5331C215.22 76.9704 215.408 76.4546 215.832 76.0795C216.209 75.7044 216.679 75.5168 217.244 75.5168H254.491C255.056 75.5168 255.574 75.7044 255.95 76.0795C256.327 76.4546 256.516 76.9235 256.516 77.5331V84.9884C256.516 85.5042 256.327 85.9731 255.95 86.3951C255.574 86.7702 255.103 87.0047 254.491 87.0047H229.016V97.7423H252.701C253.266 97.7423 253.784 97.9298 254.161 98.3518C254.538 98.7269 254.726 99.2427 254.726 99.8054V106.698C254.726 107.214 254.538 107.683 254.161 108.105C253.784 108.48 253.314 108.714 252.701 108.714H229.016V119.78H255.103C255.668 119.78 256.186 119.968 256.563 120.343C256.939 120.718 257.128 121.187 257.128 121.796V129.252C257.128 129.768 256.939 130.236 256.563 130.658C256.186 131.034 255.715 131.268 255.103 131.268H217.197C216.679 131.174 216.209 130.987 215.832 130.565Z" fill="#212121"/>
<path d="M267.205 130.561C266.828 130.186 266.593 129.717 266.593 129.154V77.5293C266.593 76.9666 266.781 76.4509 267.205 76.0757C267.582 75.7006 268.052 75.5131 268.618 75.5131H277.093C278.412 75.5131 279.306 76.0289 279.824 77.0135L299.272 107.538V77.4824C299.272 76.9197 299.46 76.404 299.884 76.0289C300.26 75.6537 300.731 75.4662 301.296 75.4662H310.855C311.42 75.4662 311.938 75.6537 312.315 76.0289C312.691 76.404 312.88 76.8729 312.88 77.4824V129.06C312.88 129.623 312.691 130.139 312.315 130.514C311.938 130.889 311.467 131.124 310.855 131.124H302.332C301.155 131.124 300.26 130.608 299.695 129.623L280.248 100.224V129.154C280.248 129.67 280.06 130.139 279.683 130.561C279.306 130.936 278.836 131.17 278.223 131.17H268.665C268.052 131.17 267.629 130.983 267.205 130.561Z" fill="#212121"/>
<path d="M337.27 130.561C336.893 130.186 336.658 129.717 336.658 129.154V87.9856H322.437C321.919 87.9856 321.449 87.798 321.025 87.376C320.648 87.0009 320.413 86.532 320.413 85.9693V77.4824C320.413 76.9197 320.601 76.404 321.025 76.0289C321.401 75.6537 321.872 75.4662 322.437 75.4662H365.381C365.946 75.4662 366.464 75.6537 366.841 76.0289C367.218 76.404 367.406 76.8729 367.406 77.4824V85.9693C367.406 86.532 367.218 87.0478 366.841 87.4229C366.464 87.798 365.993 87.9856 365.381 87.9856H351.161V129.154C351.161 129.67 350.972 130.139 350.596 130.561C350.219 130.936 349.748 131.17 349.136 131.17H338.588C338.118 131.17 337.647 130.983 337.27 130.561Z" fill="#212121"/>
<path d="M375.648 130.56C375.271 130.185 375.036 129.716 375.036 129.153V77.5285C375.036 76.9658 375.224 76.45 375.648 76.0749C376.024 75.6998 376.495 75.5123 377.06 75.5123H398.768C405.737 75.5123 411.199 77.1065 415.107 80.2481C419.015 83.3896 420.993 87.8441 420.993 93.6583C420.993 97.3626 420.098 100.504 418.356 103.13C416.614 105.709 414.165 107.725 411.105 109.085L422.029 128.638C422.17 128.966 422.264 129.247 422.264 129.529C422.264 129.951 422.076 130.326 421.746 130.701C421.417 131.029 420.993 131.217 420.569 131.217H409.975C408.421 131.217 407.338 130.513 406.726 129.06L397.638 111.57H389.492V129.2C389.492 129.763 389.303 130.279 388.879 130.607C388.503 130.982 387.985 131.17 387.42 131.17H377.108C376.495 131.17 376.072 130.982 375.648 130.56ZM398.579 100.27C401.028 100.27 402.864 99.6601 404.183 98.4879C405.454 97.3157 406.113 95.6277 406.113 93.5177C406.113 91.4077 405.501 89.7197 404.23 88.4537C402.959 87.1877 401.122 86.5781 398.627 86.5781H389.444V100.223H398.579V100.27Z" fill="#212121"/>
<path d="M431.164 130.56C430.787 130.185 430.552 129.716 430.552 129.153V77.5285C430.552 76.9658 430.74 76.45 431.164 76.0749C431.541 75.6998 432.011 75.5123 432.577 75.5123H443.265C443.83 75.5123 444.348 75.6998 444.725 76.0749C445.102 76.45 445.337 76.9189 445.337 77.5285V129.153C445.337 129.716 445.149 130.232 444.725 130.56C444.348 130.935 443.83 131.123 443.265 131.123H432.577C432.059 131.17 431.588 130.982 431.164 130.56Z" fill="#212121"/>
</svg>
