<?xml version="1.0" encoding="utf-8"?>
<!-- Generator: Adobe Illustrator 27.5.0, SVG Export Plug-In . SVG Version: 6.00 Build 0)  -->
<svg version="1.1" id="Layer_1" xmlns="http://www.w3.org/2000/svg" xmlns:xlink="http://www.w3.org/1999/xlink" x="0px" y="0px"
	 viewBox="0 0 152 152" style="enable-background:new 0 0 152 152;" xml:space="preserve">
<style type="text/css">
	.st0{fill:#59A1C9;}
	.st1{fill:#FFFFFF;}
</style>
<g>
	<path class="st0" d="M76.1,151.2c-19.4,0-38.8-7.4-53.7-22.1c-29.6-29.5-29.6-77.4,0-106.9C37.2,7.5,56.7,0.1,76.1,0.1
		c19.4,0,38.8,7.4,53.7,22.1c29.6,29.5,29.6,77.4,0,106.9C114.9,143.8,95.5,151.2,76.1,151.2z"/>
	<path class="st1" d="M92.2,46.8H48.2c-3.4,0-6.2,2.7-6.2,6.1v0.6c0,0,0,0.1,0,0.2v20.8c0,0,0,0,0,0.1v0.6c0,0,0,0,0,0.1v20.8v0.6
		c0,0.8,0.1,1.5,0.4,2.1c0.9,2.4,3.1,4,5.8,4h43.9c3.4,0,6.2-2.7,6.2-6.1v-0.6c0-3.4-2.7-6.1-6.2-6.1H55v-8.7h37.2
		c3.4,0,6.2-2.7,6.2-6.1v-0.6c0-3.4-2.7-6.1-6.2-6.1H55v-8.9h37.2c3.4,0,6.2-2.7,6.2-6.1v-0.6C98.3,49.5,95.5,46.8,92.2,46.8z
		 M132.9,74l-12.3-12.2c-0.2-0.2-0.5-0.3-0.9-0.3c-0.3,0-0.6,0.1-0.9,0.3l-0.4,0.4v25.3l0.4,0.4c0.2,0.2,0.5,0.3,0.9,0.3
		c0.3,0,0.6-0.1,0.9-0.3l12.3-12.2C133.3,75.2,133.3,74.5,132.9,74z"/>
</g>
</svg>
